<?xml version="1.0" encoding="utf-8"?>
<!-- Svg Vector Icons : http://www.onlinewebfonts.com/icon -->
<!DOCTYPE svg PUBLIC "-//W3C//DTD SVG 1.1//EN" "http://www.w3.org/Graphics/SVG/1.1/DTD/svg11.dtd">
<svg version="1.1" xmlns="http://www.w3.org/2000/svg" xmlns:xlink="http://www.w3.org/1999/xlink" x="0px" y="0px" viewBox="0 0 256 256" enable-background="new 0 0 256 256" xml:space="preserve">
<metadata> Svg Vector Icons : http://www.onlinewebfonts.com/icon </metadata>
<g><g><path fill="#000000" d="M28.3,234.2c-22.1-22-27.6-60,2.8-90.3C49,125.9,120.7,54.2,155.8,19.1C168.3,6.6,184.8,1.8,200,6c15.2,4.1,27.6,16.6,31.7,31.7c4.1,15.2-0.7,31.7-13.1,44.1L99.3,201.1c-6.9,6.9-14.5,11-22.1,11.7c-7.6,0.7-15.2-1.4-20-6.9c-9-9-10.3-26.9,4.8-42.1l84.1-84.1c3.5-3.5,9-3.5,12.4,0c3.5,3.5,3.5,9,0,12.4l-84.1,84.1c-7.6,7.6-7.6,14.5-4.8,17.2c1.4,1.4,3.5,2.1,5.5,1.4c3.5-0.7,7.6-2.7,11.7-6.9L206.2,68.7c8.3-8.3,11-17.9,9-26.9c-2.7-9-9.7-16.6-19.3-19.3c-9-2.7-19.3,0.7-26.9,9C133.1,67.4,62.1,138.4,44.1,156.3c-23.4,23.4-17.9,50.3-2.7,64.8c15.2,15.2,42.1,20.7,64.8-2.7L231,93.6c3.5-3.5,9-3.5,12.4,0c3.5,3.5,3.5,9,0,12.4L118.6,230.8c-14.5,14.5-31,20.7-46.9,20.7C55.2,252.1,40,245.2,28.3,234.2z"/></g></g>
</svg>